<svg width="19" height="32" viewBox="0 0 19 32" fill="none" xmlns="http://www.w3.org/2000/svg">
<path d="M9.49999 0C6.98044 3.01948e-06 4.56408 0.99894 2.78249 2.77706C1.00089 4.55519 -7.56342e-07 6.96684 0 9.48148C0 14.718 9.5 32 9.5 32C9.5 32 19 14.7179 19 9.48148C19 8.23636 18.7543 7.00342 18.2769 5.85307C17.7994 4.70272 17.0997 3.65749 16.2175 2.77705C15.3354 1.89662 14.2881 1.19822 13.1355 0.721729C11.9829 0.24524 10.7476 -2.24262e-06 9.49999 0V0ZM9.49999 14.4593C8.51356 14.4593 7.54928 14.1673 6.72909 13.6204C5.9089 13.0734 5.26964 12.296 4.89215 11.3864C4.51465 10.4768 4.41589 9.47596 4.60833 8.51037C4.80078 7.54478 5.27578 6.65783 5.9733 5.96167C6.67081 5.26552 7.55949 4.79143 8.52697 4.59936C9.49445 4.40729 10.4973 4.50587 11.4086 4.88263C12.32 5.25938 13.0989 5.89739 13.6469 6.71598C14.195 7.53457 14.4875 8.49697 14.4875 9.48148C14.4875 10.8017 13.962 12.0678 13.0267 13.0013C12.0913 13.9348 10.8228 14.4593 9.49999 14.4593V14.4593Z" fill="#4A8DF7"/>
</svg>
