<svg width="40" height="54" viewBox="0 0 40 54" fill="none" xmlns="http://www.w3.org/2000/svg">
<g filter="url(#filter0_d)">
<path d="M32 20C32 26.6274 20 45.3636 20 45.3636C20 45.3636 8 26.6274 8 20C8 16.8174 9.26429 13.7652 11.5147 11.5147C13.7652 9.26428 16.8174 8 20 8C23.1826 8 26.2348 9.26428 28.4853 11.5147C30.7357 13.7652 32 16.8174 32 20Z" fill="#6EA3F8"/>
<path d="M19.9995 26.818C23.765 26.818 26.8176 23.7654 26.8176 19.9998C26.8176 16.2342 23.765 13.1816 19.9995 13.1816C16.2339 13.1816 13.1813 16.2342 13.1813 19.9998C13.1813 23.7654 16.2339 26.818 19.9995 26.818Z" fill="white"/>
</g>
<defs>
<filter id="filter0_d" x="0" y="0" width="40" height="53.3636" filterUnits="userSpaceOnUse" color-interpolation-filters="sRGB">
<feFlood flood-opacity="0" result="BackgroundImageFix"/>
<feColorMatrix in="SourceAlpha" type="matrix" values="0 0 0 0 0 0 0 0 0 0 0 0 0 0 0 0 0 0 127 0"/>
<feOffset/>
<feGaussianBlur stdDeviation="4"/>
<feColorMatrix type="matrix" values="0 0 0 0 1 0 0 0 0 1 0 0 0 0 1 0 0 0 0.71 0"/>
<feBlend mode="normal" in2="BackgroundImageFix" result="effect1_dropShadow"/>
<feBlend mode="normal" in="SourceGraphic" in2="effect1_dropShadow" result="shape"/>
</filter>
</defs>
</svg>
